<svg xmlns="http://www.w3.org/2000/svg" viewBox="0 0 1200 640" role="img" aria-labelledby="title desc">
  <title id="title">Racquet Habit rally arc</title>
  <desc id="desc">An expressive red-orange trajectory stroke sweeping upward across the canvas.</desc>
  <path d="M20 620C144 363 319 191 520 118 728 42 937 64 1182 8 947 103 770 116 603 180 385 263 204 407 72 634Z" fill="#EF4A22"/>
  <path d="M38 579C199 326 374 187 571 124 755 65 942 75 1192 20" fill="none" stroke="#FF6B32" stroke-width="13" stroke-linecap="round"/>
  <path d="M102 557C260 348 421 224 598 169 755 120 923 108 1115 56" fill="none" stroke="#B72F1C" stroke-width="5" stroke-linecap="round"/>
  <path d="M162 518C292 373 432 282 578 232" fill="none" stroke="#EF4A22" stroke-width="9" stroke-linecap="round"/>
  <path d="M842 102C963 74 1077 49 1191 16" fill="none" stroke="#EF4A22" stroke-width="7" stroke-linecap="round"/>
</svg>
