<?xml version="1.0" standalone="no"?>
<!DOCTYPE svg PUBLIC "-//W3C//DTD SVG 20010904//EN"
 "http://www.w3.org/TR/2001/REC-SVG-20010904/DTD/svg10.dtd">
<svg version="1.0" xmlns="http://www.w3.org/2000/svg"
 width="334.000000pt" height="392.000000pt" viewBox="0 0 334.000000 392.000000"
 preserveAspectRatio="xMidYMid meet" role="img" aria-label="Racquet Habit Umpire chair illustration">
<title>Racquet Habit Umpire chair illustration</title>
<g transform="translate(0.000000,392.000000) scale(0.100000,-0.100000)"
fill="#103C2C" stroke="none">
<path d="M1086 3560 c-16 -5 -39 -19 -52 -31 -42 -39 -46 -71 -25 -229 18
-141 18 -146 0 -166 -11 -11 -19 -31 -19 -45 0 -13 16 -114 34 -224 21 -126
30 -204 25 -211 -5 -7 -7 -29 -4 -50 7 -46 -20 -169 -330 -1504 -36 -157 -68
-292 -71 -301 -4 -13 -14 -15 -48 -12 -24 3 -53 0 -64 -6 -37 -20 -55 -68 -49
-128 4 -37 2 -53 -6 -53 -7 0 8 -9 32 -20 55 -25 101 -25 133 -1 15 12 33 18
46 14 30 -7 119 7 103 17 -10 6 -10 12 -2 28 13 25 14 82 2 115 -9 23 -4 27
169 111 156 76 184 86 217 81 28 -4 33 -3 18 4 -19 9 -19 10 3 10 12 1 22 -5
22 -12 0 -7 17 -19 38 -26 159 -55 232 -85 232 -96 0 -23 41 -65 63 -65 12 1
33 7 47 14 21 12 29 12 54 -1 19 -10 42 -13 70 -9 34 5 44 12 55 37 7 17 17
27 21 22 4 -4 10 -34 13 -66 7 -73 -6 -80 -68 -38 -57 38 -59 25 -2 -17 80
-58 94 -76 101 -134 15 -122 13 -118 62 -118 42 0 44 1 44 31 0 16 -18 143
-39 282 -22 139 -42 278 -46 309 l-7 57 33 -5 c67 -9 466 -64 589 -80 69 -9
130 -17 135 -19 6 -2 23 -74 39 -161 15 -88 30 -167 32 -176 5 -15 -2 -18 -38
-19 -35 -1 -39 -2 -18 -8 l25 -8 -25 -5 c-14 -3 12 -6 56 -7 57 -1 85 3 93 12
6 8 9 16 7 18 -3 2 -11 42 -20 89 -8 47 -51 279 -96 515 -45 237 -115 611
-155 831 -41 221 -79 423 -85 449 -10 44 -9 49 10 62 42 30 43 53 4 262 -20
108 -41 205 -46 216 -20 38 -52 65 -88 75 -27 7 -103 4 -270 -10 -128 -11
-235 -19 -236 -17 -2 2 -17 70 -34 153 -17 82 -38 159 -46 171 -32 49 -53 55
-297 74 -127 10 -250 20 -272 23 -22 2 -53 1 -69 -4z m317 -35 c92 -8 173 -16
180 -16 6 -1 -1 -5 -18 -9 -30 -8 -30 -8 6 -9 19 0 40 4 45 9 14 14 53 -1 77
-28 23 -25 46 -87 47 -125 0 -27 0 -27 -82 -22 -46 2 -132 7 -193 10 -60 3
-171 11 -247 17 -136 11 -136 11 -142 41 -13 64 -7 107 19 133 23 23 31 24 83
19 31 -3 132 -12 225 -20z m-340 -293 c6 -48 5 -51 -10 -37 -8 9 -13 19 -10
22 4 3 2 14 -4 24 -7 14 -6 19 3 20 10 0 10 2 0 6 -6 2 -9 9 -6 14 3 6 1 16
-6 24 -8 10 -8 15 1 20 8 5 8 9 0 14 -12 8 -22 116 -13 140 5 14 34 -139 45
-247z m-6 181 c-2 -16 -4 -5 -4 22 0 28 2 40 4 28 2 -13 2 -35 0 -50z m378
-89 c149 -8 280 -17 292 -20 23 -4 28 -14 42 -87 l9 -48 -222 3 c-121 2 -271
-1 -332 -6 l-111 -8 -6 28 c-3 16 -9 57 -13 92 l-7 62 39 0 c22 0 161 -7 309
-16z m74 -180 c41 -24 51 -47 71 -153 9 -53 28 -151 40 -219 24 -123 24 -123
1 -145 -23 -22 -23 -22 -17 14 4 22 -1 65 -14 114 -11 43 -20 92 -20 110 0 17
-3 35 -6 38 -4 4 -8 25 -10 48 -4 42 -26 115 -45 151 -17 33 -67 47 -124 37
-27 -5 -103 -13 -168 -19 -65 -5 -122 -12 -127 -15 -6 -3 -10 -1 -10 4 0 16
-19 13 -36 -4 -16 -16 -34 -20 -34 -7 1 28 25 35 156 47 209 18 310 18 343 -1z
m268 4 c16 -21 24 -88 10 -88 -8 0 -7 -3 2 -9 8 -5 11 -16 8 -25 -5 -13 -24
-16 -106 -16 l-99 0 -7 40 c-4 22 -17 56 -31 75 l-23 35 118 0 c83 0 122 -4
128 -12z m548 -2 c50 -21 68 -71 106 -283 26 -148 30 -187 21 -208 -6 -14 -18
-25 -27 -25 -17 0 -20 26 -4 36 14 8 7 75 -27 246 -26 133 -41 173 -74 203
-21 19 -53 21 -195 11 -181 -13 -265 -15 -265 -6 0 6 10 10 23 11 12 0 85 7
162 14 192 17 240 17 280 1z m-846 -53 c12 -10 25 -33 30 -50 l10 -33 -160 0
c-167 0 -229 12 -229 44 0 9 -1 19 -2 24 -2 4 56 12 127 18 192 16 200 16 224
-3z m815 6 c14 -7 28 -19 32 -28 4 -9 21 -92 39 -184 27 -144 30 -167 16 -161
-45 19 -102 24 -273 24 -103 0 -189 4 -192 9 -3 4 -19 75 -37 156 -22 104 -28
150 -20 158 6 6 93 16 193 22 101 7 191 13 200 14 9 0 28 -4 42 -10z m-1255
-48 c6 -10 13 -37 17 -60 4 -26 11 -40 19 -38 13 6 39 -149 30 -185 -3 -13 -2
-43 2 -67 l8 -43 199 -2 c198 -1 199 -1 202 -23 4 -23 4 -23 -181 -23 -158 0
-185 2 -185 15 0 21 -17 19 -23 -4 -6 -26 -57 -17 -57 10 0 11 7 19 15 19 17
0 20 16 5 25 -5 3 -10 17 -10 31 0 13 -4 24 -8 24 -5 0 -19 66 -31 148 -12 81
-25 157 -28 170 -6 27 12 29 26 3z m791 14 c0 -3 11 -57 25 -121 31 -143 32
-164 6 -157 -12 3 -17 11 -14 19 3 8 1 14 -4 14 -14 0 -36 132 -24 139 7 5 8
25 2 59 -4 29 -4 52 0 52 5 0 9 -2 9 -5z m-295 -179 c9 -50 19 -101 22 -113 5
-21 3 -21 -182 -25 -180 -3 -187 -4 -205 -26 -23 -28 -22 -29 -50 123 -31 170
-55 151 189 141 l209 -9 17 -91z m249 77 c12 -38 36 -166 36 -189 0 -24 -1
-24 -90 -24 -49 0 -90 3 -90 8 0 4 -6 39 -14 77 -8 39 -17 87 -20 108 l-7 37
90 0 c77 0 90 -3 95 -17z m-236 -230 c-10 -2 -26 -2 -35 0 -10 3 -2 5 17 5 19
0 27 -2 18 -5z m513 0 c-11 -4 -11 -7 0 -13 22 -14 -312 -8 -351 6 -31 11 -10
13 165 13 110 0 194 -3 186 -6z m217 -10 c-32 -2 -86 -2 -120 0 -35 2 -9 3 57
3 66 0 94 -1 63 -3z m-919 -30 c0 -11 -3 -13 -6 -5 -2 6 -9 12 -14 12 -6 0 -7
-4 -4 -10 3 -5 1 -10 -4 -10 -6 0 -11 6 -11 13 0 8 -4 7 -10 -3 -9 -13 -10
-13 -10 0 0 13 -1 13 -10 0 -9 -13 -10 -13 -10 0 0 13 -2 13 -9 1 -10 -15 -41
-8 -41 9 0 6 27 10 65 10 56 0 65 -3 64 -17z m71 2 c0 -8 -7 -15 -15 -15 -8 0
-15 5 -15 11 0 8 -5 8 -15 -1 -12 -10 -15 -10 -15 4 0 11 9 16 30 16 20 0 30
-5 30 -15z m100 7 c0 -4 -16 -7 -35 -6 -19 1 -35 -2 -35 -7 0 -5 -4 -9 -10 -9
-5 0 -10 7 -10 15 0 11 12 15 45 15 25 0 45 -3 45 -8z m840 -11 c0 -17 -9 -20
-67 -23 -38 -3 -168 -5 -291 -7 -152 -1 -222 2 -217 9 3 5 -1 10 -9 10 -9 0
-16 -5 -16 -11 0 -5 -4 -7 -10 -4 -5 3 -10 12 -10 20 0 12 51 14 297 15 163 0
299 3 302 5 10 11 21 4 21 -14z m27 -13 c-3 -7 -5 -2 -5 12 0 14 2 19 5 13 2
-7 2 -19 0 -25z m-817 -27 c0 -5 -6 -8 -12 -7 -7 0 -13 -3 -13 -9 0 -5 5 -9
12 -7 7 2 13 -2 13 -8 0 -5 -11 -10 -25 -10 -18 0 -25 5 -25 18 0 10 3 22 7
25 9 10 43 8 43 -2z m127 -13 c15 -26 10 -36 -18 -34 -16 0 -25 4 -19 10 4 4
6 15 3 22 -7 18 23 19 34 2z m681 -16 c3 -9 -8 -13 -35 -13 -21 -1 -170 -3
-330 -6 -204 -3 -293 -1 -293 6 0 12 6 12 353 17 132 1 242 5 245 9 11 10 55
1 60 -13z m31 -97 c6 -33 36 -195 67 -360 30 -165 70 -381 89 -480 19 -99 52
-277 74 -395 22 -118 56 -298 76 -400 19 -102 35 -194 35 -205 0 -18 -2 -18
-20 5 l-21 25 7 -30 c5 -25 4 -28 -7 -18 -15 15 -62 257 -50 261 9 3 7 16 -31
162 -20 81 -29 161 -28 259 0 24 -9 68 -20 98 -11 29 -21 68 -21 86 l-1 32 -7
-30 c-5 -23 -13 9 -35 130 -15 88 -30 171 -33 185 -4 20 -3 22 7 10 9 -12 10
-11 5 6 -3 12 -7 53 -10 92 -3 61 -16 104 -35 122 -11 10 -43 166 -44 212 -1
27 -4 48 -8 48 -5 0 -8 8 -8 18 0 15 2 15 10 2 8 -11 9 -9 5 10 -16 78 -31
200 -24 200 5 0 6 8 2 18 -4 11 -3 14 4 7 6 -5 15 -37 22 -70z m-1320 23 c-4
-24 -5 -54 -3 -68 8 -38 -33 -197 -56 -220 -16 -16 -19 -29 -15 -64 4 -31 -10
-113 -50 -292 -76 -344 -89 -392 -110 -408 -13 -9 -16 -21 -13 -47 8 -52 -52
-339 -65 -308 -4 10 -6 8 -6 -5 -1 -12 -6 -16 -16 -12 -8 3 -15 1 -15 -4 0 -6
5 -10 10 -10 7 0 7 -6 0 -19 -5 -11 -10 -35 -11 -53 0 -41 -22 -144 -32 -154
-11 -12 -8 -26 5 -18 12 8 6 -47 -13 -118 -12 -48 -29 -49 -29 -2 0 23 -4 33
-11 28 -8 -4 -9 4 -4 27 8 42 83 359 135 579 22 91 60 255 84 365 25 110 59
261 76 335 17 74 45 196 61 270 36 169 58 240 74 240 9 0 10 -11 4 -42z m432
12 c11 -16 25 -71 37 -151 l18 -126 -240 -12 c-198 -9 -242 -9 -253 2 -11 11
-8 36 17 147 17 74 36 142 41 152 9 17 24 18 186 16 175 -3 176 -3 194 -28z
m65 -15 c7 -24 13 -32 14 -20 1 20 1 20 9 0 4 -11 16 -69 25 -130 40 -262 80
-526 136 -895 34 -217 67 -435 74 -485 8 -52 10 -91 5 -93 -13 -5 -11 -30 2
-34 12 -4 81 -408 72 -418 -3 -3 -11 4 -19 14 -13 18 -14 18 -14 2 0 -10 -5
-16 -12 -14 -14 5 -59 258 -56 315 2 22 0 39 -4 36 -5 -2 -8 12 -8 32 0 21 -7
76 -15 124 -26 150 -45 274 -45 288 0 8 5 11 10 8 6 -4 10 5 10 20 0 19 -4 26
-13 22 -11 -4 -18 22 -31 111 -10 76 -13 118 -6 120 13 5 13 42 0 42 -5 0 -11
-6 -11 -12 -1 -7 -7 23 -14 67 -7 48 -9 87 -4 97 13 25 11 41 -5 35 -14 -6
-25 39 -32 128 -2 35 -78 504 -102 638 -8 41 -7 47 6 45 8 -2 21 -21 28 -43z
m738 22 c9 -12 31 -112 50 -222 20 -110 40 -222 45 -250 5 -27 9 -51 8 -51 -1
-1 -138 -10 -304 -20 -247 -16 -303 -17 -303 -6 0 19 57 339 82 459 l20 102
107 4 c293 8 279 9 295 -16z m-495 -29 c-5 -24 -14 -76 -20 -116 -10 -61 -17
-78 -43 -103 -21 -20 -41 -29 -63 -29 -18 0 -33 1 -33 3 0 1 -9 54 -20 117
-11 63 -20 127 -20 143 0 27 0 27 104 27 l103 0 -8 -42z m36 -28 c-3 -5 -1
-10 6 -10 9 0 9 -3 0 -14 -9 -11 -9 -15 0 -18 9 -3 8 -22 -4 -78 -9 -41 -28
-142 -42 -225 -14 -82 -30 -154 -35 -159 -7 -7 -10 -5 -10 5 0 12 -2 12 -10
-1 -5 -8 -11 -12 -13 -10 -7 9 28 172 35 165 6 -6 15 20 32 98 4 16 2 27 -4
27 -5 0 -10 18 -10 41 0 22 4 38 9 35 5 -4 7 2 4 13 -2 10 1 38 8 62 7 24 13
49 14 54 0 6 5 13 10 17 14 11 17 10 10 -2z m-75 -246 c3 -5 -23 -10 -57 -12
-37 -2 -63 1 -63 7 0 17 111 22 120 5z m-210 -14 c0 -5 -21 -11 -47 -11 -27
-1 -73 -3 -103 -5 -30 -1 -104 -5 -165 -8 -60 -2 -131 -8 -157 -12 -44 -6 -48
-5 -48 14 0 20 6 22 128 25 313 7 392 7 392 -3z m10 -47 c0 -10 3 -27 6 -38 4
-16 -25 -47 -139 -152 -136 -124 -145 -131 -162 -115 -16 16 -17 16 -5 -7 7
-13 8 -27 3 -32 -8 -8 -153 228 -181 295 l-12 31 23 -27 c12 -15 48 -69 80
-120 74 -121 81 -131 58 -83 -10 22 -46 85 -80 140 -33 55 -57 101 -52 103 14
5 263 19 364 21 86 1 97 -1 97 -16z m180 11 c0 -28 -34 -201 -41 -208 -14 -15
-17 -5 -30 73 -11 73 -11 73 22 107 31 32 49 42 49 28z m-657 -102 c44 -67
138 -232 150 -264 4 -11 -13 -38 -55 -85 -33 -37 -94 -109 -134 -159 -74 -91
-74 -91 -127 -93 l-54 -1 74 327 c41 181 76 334 78 341 7 20 20 8 68 -66z
m440 -44 c-16 -18 -75 -79 -131 -134 l-103 -102 35 -68 c42 -82 46 -79 9 6
l-26 62 131 131 c72 72 134 128 138 125 3 -4 10 -42 14 -85 5 -43 16 -121 26
-173 18 -99 24 -223 11 -236 -4 -4 -49 -13 -99 -19 -90 -12 -94 -12 -112 9
-19 21 -19 21 -12 -1 5 -15 3 -23 -4 -23 -14 0 -112 207 -112 237 0 12 -5 20
-12 17 -12 -5 -108 -112 -221 -247 l-57 -68 44 5 c247 34 569 64 539 50 -10
-5 -10 -8 -1 -14 6 -4 -21 -10 -61 -14 -41 -4 -89 -9 -109 -12 -19 -2 -122
-13 -229 -24 -230 -25 -269 -29 -296 -35 -11 -2 -28 2 -38 9 -19 15 -16 16 96
32 26 3 47 10 47 14 0 15 112 150 235 283 99 108 308 307 323 307 2 0 -9 -15
-25 -32z m914 -53 c3 -9 3 -18 1 -20 -5 -5 -658 -55 -715 -55 -22 0 -33 5 -33
14 0 28 -8 27 665 69 28 2 56 4 63 5 7 1 15 -5 19 -13z m-22 -67 c22 -95 92
-504 87 -509 -4 -4 -101 -16 -217 -29 -115 -12 -264 -28 -330 -36 -163 -19
-172 -19 -178 9 -3 12 -15 88 -27 169 -20 140 -21 150 -5 240 21 126 21 127
58 133 30 5 501 41 574 44 26 1 34 -4 38 -21z m-690 -50 c-6 -23 -6 -23 11 -3
12 14 15 15 11 4 -3 -9 -9 -37 -12 -63 -4 -25 -11 -48 -15 -51 -13 -8 -21 80
-11 108 13 33 25 36 16 5z m-358 -334 c-3 -4 -298 -44 -320 -44 -12 0 12 32
120 158 l98 114 53 -112 c29 -62 51 -114 49 -116z m248 -86 c-20 -131 -38
-233 -41 -237 -3 -3 -17 27 -60 128 -8 19 -16 32 -19 29 -3 -3 8 -38 25 -78
17 -41 29 -78 27 -83 -2 -8 -93 175 -116 235 -10 26 -9 27 32 32 74 10 101 13
130 15 28 1 29 0 22 -41z m55 -13 c0 -47 -32 -235 -41 -235 -4 0 -5 9 -2 20 3
11 0 20 -6 20 -6 0 -11 -10 -12 -22 0 -13 -3 -18 -6 -11 -5 15 23 204 39 252
7 24 13 30 19 20 5 -8 9 -27 9 -44z m-203 -109 c35 -77 61 -141 59 -143 -23
-24 -304 -161 -343 -169 -32 -6 -344 40 -390 57 -20 7 -20 11 -10 51 7 27 45
89 105 170 52 70 97 128 100 129 4 0 93 11 197 23 105 13 197 23 205 22 8 -1
40 -58 77 -140z m-513 82 c-36 -59 -139 -188 -142 -179 -2 6 11 31 30 54 50
61 81 108 76 112 -2 3 -26 -24 -52 -60 -26 -36 -49 -65 -51 -65 -7 0 23 112
33 122 6 6 27 12 47 13 20 1 39 5 42 9 11 11 24 6 17 -6z m1596 -44 c0 -8 -3
-14 -7 -14 -5 0 -169 -20 -366 -46 -312 -40 -359 -44 -372 -31 -17 18 -10 27
21 27 13 0 25 4 28 9 5 8 123 21 246 27 36 1 92 8 125 14 33 6 77 9 98 7 20
-3 35 -1 32 3 -3 5 23 11 57 14 35 3 77 7 93 9 37 3 45 0 45 -19z m-862 -55
c-4 -33 0 -61 8 -78 19 -35 18 -62 -1 -56 -8 3 -21 7 -29 9 -11 4 -11 17 0 88
8 46 14 84 14 86 0 1 3 2 6 2 4 0 4 -23 2 -51z m859 -99 c12 -63 22 -122 20
-131 -2 -14 -40 -11 -327 27 -491 65 -434 53 -438 97 -2 20 0 37 5 37 4 0 130
16 278 36 387 51 398 52 419 50 17 -1 23 -18 43 -116z m-967 -42 c0 -15 -8
-19 -200 -104 -79 -36 -150 -63 -157 -62 -6 2 44 28 112 58 68 30 121 58 119
62 -3 4 3 5 12 1 12 -4 15 -3 10 5 -4 7 -2 10 6 7 7 -3 31 6 53 20 47 29 45
28 45 13z m50 -13 c0 -8 -7 -15 -15 -15 -16 0 -20 12 -8 23 11 12 23 8 23 -8z
m80 -11 c0 -11 -5 -14 -16 -10 -9 3 -22 6 -30 6 -8 0 -14 5 -14 10 0 6 14 10
30 10 21 0 30 -5 30 -16z m130 -8 c0 -11 -19 -15 -25 -6 -3 5 1 10 9 10 9 0
16 -2 16 -4z m150 -16 c24 -7 24 -7 -10 -14 -32 -7 -90 6 -90 19 0 7 71 4 100
-5z m-443 -82 c-5 -40 -13 -77 -17 -82 -8 -8 -53 -2 -199 26 -64 12 -69 7 98
85 63 29 117 50 121 48 4 -2 2 -37 -3 -77z m170 68 c5 -5 31 -181 27 -185 -2
-2 -18 2 -36 10 -17 7 -45 12 -61 11 -29 -2 -29 -2 -24 35 3 21 9 62 13 91 7
54 7 54 43 47 20 -4 37 -8 38 -9z m638 -31 c110 -14 204 -31 210 -36 7 -7 4
-8 -9 -3 -13 5 -17 4 -12 -4 10 -16 -5 -15 -154 5 -80 11 -116 19 -100 23 14
3 -13 6 -60 6 -47 0 -92 4 -100 9 -8 5 -28 8 -45 7 -23 -2 -27 -1 -15 7 11 8
3 10 -30 7 -25 -2 -35 -2 -22 1 12 2 20 8 18 12 -5 8 7 7 319 -34z m-767 5
c-3 -16 -3 -30 -1 -30 1 0 9 15 17 33 15 32 15 32 10 -18 -9 -90 -16 -125 -25
-125 -5 0 -9 4 -9 10 0 5 -6 7 -14 4 -12 -5 -12 5 0 68 8 40 14 76 14 81 0 4
3 7 6 7 4 0 4 -13 2 -30z m-558 -70 c153 -26 474 -76 580 -90 131 -16 140 -19
140 -41 0 -17 -5 -19 -32 -15 -18 3 -125 20 -238 36 -220 33 -250 39 -265 50
-5 4 -46 10 -90 14 -71 6 -208 26 -288 42 -15 3 -24 10 -21 16 5 7 -4 9 -23 6
-25 -3 -53 10 -53 25 0 5 114 -12 290 -43z m-134 -31 c32 -5 77 -15 98 -20 39
-11 39 -11 -100 -84 -77 -41 -152 -77 -166 -80 -27 -7 -27 -7 -12 57 34 145
30 138 78 138 23 0 69 -5 102 -11z m174 -44 c0 -8 -342 -177 -347 -171 -4 4
89 53 267 142 65 33 80 38 80 29z m275 -60 c61 -24 104 -44 97 -45 -12 0 -212
77 -221 85 -12 13 25 1 124 -40z m59 20 c57 -7 79 -21 56 -35 -11 -7 -127 33
-140 48 -3 3 2 3 11 0 9 -4 41 -9 73 -13z m116 -45 c0 -4 -7 -13 -15 -20 -8
-7 -12 -17 -8 -23 9 -15 11 -47 3 -47 -27 0 -42 74 -19 97 12 12 39 7 39 -7z
m63 -17 c6 -32 0 -44 -12 -24 -7 10 -10 10 -16 1 -11 -17 -24 6 -18 31 8 30
40 24 46 -8z m50 5 c4 -10 8 -9 16 2 15 21 14 -5 -1 -29 -11 -18 -13 -18 -25
-3 -15 20 -17 42 -4 42 5 0 12 -6 14 -12z m57 -22 c0 -19 -3 -37 -7 -39 -5 -3
-8 13 -8 34 -1 21 3 39 7 39 4 0 8 -15 8 -34z m38 22 c16 -16 15 -30 -4 -54
-15 -19 -15 -18 -9 3 3 12 1 24 -5 28 -12 7 -14 35 -2 35 4 0 13 -5 20 -12z
m-991 -128 c12 -40 6 -101 -8 -78 -7 10 -9 10 -9 1 0 -7 -3 -13 -7 -13 -5 0
-9 17 -9 38 -1 20 -5 50 -9 65 -7 25 -5 28 11 25 11 -2 24 -18 31 -38z m-182
-3 c20 -28 19 -107 -1 -135 -20 -29 -48 -28 -73 4 -28 35 -28 102 -1 137 23
29 52 27 75 -6z m49 8 c17 -26 22 -110 7 -119 -5 -4 -7 3 -4 14 3 11 1 20 -5
20 -10 0 -26 53 -24 80 0 8 -5 18 -11 22 -8 5 -7 8 4 8 9 0 24 -11 33 -25z
m48 -67 c-7 -7 -12 -8 -12 -2 0 14 12 26 19 19 2 -3 -1 -11 -7 -17z"/>
<path d="M1130 3511 c0 -5 9 -7 20 -4 11 3 20 7 20 9 0 2 -9 4 -20 4 -11 0
-20 -4 -20 -9z"/>
<path d="M1113 3453 c9 -2 23 -2 30 0 6 3 -1 5 -18 5 -16 0 -22 -2 -12 -5z"/>
<path d="M1135 3240 c28 -12 47 -12 40 0 -3 6 -18 10 -33 9 -24 0 -25 -1 -7
-9z"/>
<path d="M765 1190 c-4 -12 -5 -24 -2 -27 3 -2 8 5 12 17 4 12 5 24 2 27 -3 2
-8 -5 -12 -17z"/>
<path d="M1680 1961 c0 -5 5 -13 10 -16 6 -3 10 -2 10 4 0 5 -4 13 -10 16 -5
3 -10 2 -10 -4z"/>
<path d="M1692 1450 c0 -14 2 -19 5 -12 2 6 2 18 0 25 -3 6 -5 1 -5 -13z"/>
<path d="M544 685 c-4 -8 -3 -23 1 -32 6 -17 7 -17 20 0 14 19 10 47 -6 47 -5
0 -12 -7 -15 -15z"/>
<path d="M1763 725 c15 -14 32 -25 38 -25 17 0 9 8 -28 29 l-38 22 28 -26z"/>
<path d="M2515 670 c4 -6 11 -8 16 -5 14 9 11 15 -7 15 -8 0 -12 -5 -9 -10z"/>
</g>
</svg>
